<?xml version="1.0" encoding="UTF-8" standalone="no"?><!DOCTYPE svg PUBLIC "-//W3C//DTD SVG 1.1//EN" "http://www.w3.org/Graphics/SVG/1.1/DTD/svg11.dtd"><!-- Generated by graphviz version 2.40.1 (20161225.0304)
 --><!-- Title: deps Pages: 1 --><svg xmlns="http://www.w3.org/2000/svg" xmlns:xlink="http://www.w3.org/1999/xlink" width="962pt" height="516pt" viewBox="0.00 0.00 961.80 516.00">
<g id="graph0" class="graph" transform="scale(1 1) rotate(0) translate(4 512)">
<title>deps</title>
<polygon fill="#ffffff" stroke="transparent" points="-4,4 -4,-512 957.8002,-512 957.8002,4 -4,4"/>
<!-- aStar -->
<g id="node1" class="node">
<title>aStar</title>
<ellipse fill="none" stroke="#000000" cx="325.0572" cy="-228" rx="30.7539" ry="18"/>
<text text-anchor="middle" x="325.0572" y="-223.8" font-family="Times,serif" font-size="14.00" fill="#000000">aStar</text>
</g>
<!-- aStar&#45;&gt;aStar -->
<g id="edge11" class="edge">
<title>aStar-&gt;aStar</title>
<path fill="none" stroke="#000000" d="M300.0866,-239.0572C284.4485,-250.7798 292.772,-264 325.0572,-264 350.5322,-264 361.0882,-255.7688 356.7253,-246.5372"/>
<polygon fill="#000000" stroke="#000000" points="359.3059,-244.1725 350.0277,-239.0572 354.0909,-248.8419 359.3059,-244.1725"/>
</g>
<!-- backtrace -->
<g id="node3" class="node">
<title>backtrace</title>
<ellipse fill="none" stroke="#000000" cx="515.0595" cy="-272" rx="48.051" ry="18"/>
<text text-anchor="middle" x="515.0595" y="-267.8" font-family="Times,serif" font-size="14.00" fill="#000000">backtrace</text>
</g>
<!-- aStar&#45;&gt;backtrace -->
<g id="edge12" class="edge">
<title>aStar-&gt;backtrace</title>
<path fill="none" stroke="#000000" d="M353.9145,-234.6827C383.0163,-241.422 428.5578,-251.9683 463.813,-260.1325"/>
<polygon fill="#000000" stroke="#000000" points="463.3951,-263.6283 473.9269,-262.4747 464.9744,-256.8088 463.3951,-263.6283"/>
</g>
<!-- getNeighbors -->
<g id="node9" class="node">
<title>getNeighbors</title>
<ellipse fill="none" stroke="#000000" cx="515.0595" cy="-382" rx="63.1228" ry="18"/>
<text text-anchor="middle" x="515.0595" y="-377.8" font-family="Times,serif" font-size="14.00" fill="#000000">getNeighbors</text>
</g>
<!-- aStar&#45;&gt;getNeighbors -->
<g id="edge10" class="edge">
<title>aStar-&gt;getNeighbors</title>
<path fill="none" stroke="#000000" d="M349.0852,-239.3693C367.2001,-248.5148 392.1765,-262.3829 411.7134,-278 430.1391,-292.7288 431.22,-300.1355 447.7134,-317 461.0739,-330.6612 476.3704,-345.4871 489.0051,-357.525"/>
<polygon fill="#000000" stroke="#000000" points="486.8238,-360.2802 496.4869,-364.6248 491.6422,-355.2024 486.8238,-360.2802"/>
</g>
<!-- inAny -->
<g id="node13" class="node">
<title>inAny</title>
<ellipse fill="none" stroke="#000000" cx="515.0595" cy="-218" rx="35.3548" ry="18"/>
<text text-anchor="middle" x="515.0595" y="-213.8" font-family="Times,serif" font-size="14.00" fill="#000000">inAny</text>
</g>
<!-- aStar&#45;&gt;inAny -->
<g id="edge13" class="edge">
<title>aStar-&gt;inAny</title>
<path fill="none" stroke="#000000" d="M356.0072,-226.3711C386.9208,-224.7441 434.7713,-222.2256 469.9174,-220.3759"/>
<polygon fill="#000000" stroke="#000000" points="470.1233,-223.87 479.9255,-219.8491 469.7554,-216.8796 470.1233,-223.87"/>
</g>
<!-- at -->
<g id="node2" class="node">
<title>at</title>
<ellipse fill="none" stroke="#000000" cx="673.4025" cy="-220" rx="27" ry="18"/>
<text text-anchor="middle" x="673.4025" y="-215.8" font-family="Times,serif" font-size="14.00" fill="#000000">at</text>
</g>
<!-- backtrace&#45;&gt;at -->
<g id="edge15" class="edge">
<title>backtrace-&gt;at</title>
<path fill="none" stroke="#000000" d="M551.3866,-260.0701C577.8252,-251.3877 613.3856,-239.7096 639.2938,-231.2013"/>
<polygon fill="#000000" stroke="#000000" points="640.6483,-234.4405 649.0571,-227.9951 638.4643,-227.7899 640.6483,-234.4405"/>
</g>
<!-- backtrace&#45;&gt;backtrace -->
<g id="edge16" class="edge">
<title>backtrace-&gt;backtrace</title>
<path fill="none" stroke="#000000" d="M488.3276,-287.1666C480.227,-297.6641 489.1377,-308 515.0595,-308 532.4758,-308 542.2129,-303.3342 544.2709,-297.0884"/>
<polygon fill="#000000" stroke="#000000" points="547.6115,-296.0197 541.7915,-287.1666 540.8204,-297.7169 547.6115,-296.0197"/>
</g>
<!-- isStart -->
<g id="node16" class="node">
<title>isStart</title>
<ellipse fill="none" stroke="#000000" cx="673.4025" cy="-274" rx="35.9271" ry="18"/>
<text text-anchor="middle" x="673.4025" y="-269.8" font-family="Times,serif" font-size="14.00" fill="#000000">isStart</text>
</g>
<!-- backtrace&#45;&gt;isStart -->
<g id="edge14" class="edge">
<title>backtrace-&gt;isStart</title>
<path fill="none" stroke="#000000" d="M563.428,-272.6109C583.797,-272.8682 607.3887,-273.1662 627.4863,-273.42"/>
<polygon fill="#000000" stroke="#000000" points="627.5986,-276.9216 637.642,-273.5483 627.6871,-269.9222 627.5986,-276.9216"/>
</g>
<!-- carvePath -->
<g id="node4" class="node">
<title>carvePath</title>
<ellipse fill="none" stroke="#000000" cx="325.0572" cy="-146" rx="49.2144" ry="18"/>
<text text-anchor="middle" x="325.0572" y="-141.8" font-family="Times,serif" font-size="14.00" fill="#000000">carvePath</text>
</g>
<!-- carvePath&#45;&gt;at -->
<g id="edge17" class="edge">
<title>carvePath-&gt;at</title>
<path fill="none" stroke="#000000" d="M371.4717,-152.1832C423.3071,-159.535 509.5068,-173.0976 582.4057,-191 601.6544,-195.7271 622.7679,-202.3628 639.8076,-208.0939"/>
<polygon fill="#000000" stroke="#000000" points="638.7302,-211.4243 649.3247,-211.3425 640.9915,-204.7997 638.7302,-211.4243"/>
</g>
<!-- carvePath&#45;&gt;carvePath -->
<g id="edge18" class="edge">
<title>carvePath-&gt;carvePath</title>
<path fill="none" stroke="#000000" d="M295.9448,-160.7917C286.4663,-171.4165 296.1705,-182 325.0572,-182 344.9168,-182 355.7097,-176.9976 357.4357,-170.4186"/>
<polygon fill="#000000" stroke="#000000" points="360.6969,-169.137 354.1696,-160.7917 354.0681,-171.386 360.6969,-169.137"/>
</g>
<!-- getInDirection -->
<g id="node8" class="node">
<title>getInDirection</title>
<ellipse fill="none" stroke="#000000" cx="515.0595" cy="-72" rx="67.1927" ry="18"/>
<text text-anchor="middle" x="515.0595" y="-67.8" font-family="Times,serif" font-size="14.00" fill="#000000">getInDirection</text>
</g>
<!-- carvePath&#45;&gt;getInDirection -->
<g id="edge20" class="edge">
<title>carvePath-&gt;getInDirection</title>
<path fill="none" stroke="#000000" d="M364.9294,-135.4413C379.851,-131.0073 396.7931,-125.3887 411.7134,-119 428.5391,-111.7954 431.1863,-106.8655 447.7134,-99 453.7506,-96.1268 460.1795,-93.2843 466.578,-90.5834"/>
<polygon fill="#000000" stroke="#000000" points="467.9755,-93.793 475.8818,-86.7403 465.3031,-87.3232 467.9755,-93.793"/>
</g>
<!-- isPassage -->
<g id="node15" class="node">
<title>isPassage</title>
<ellipse fill="none" stroke="#000000" cx="515.0595" cy="-18" rx="48.0877" ry="18"/>
<text text-anchor="middle" x="515.0595" y="-13.8" font-family="Times,serif" font-size="14.00" fill="#000000">isPassage</text>
</g>
<!-- carvePath&#45;&gt;isPassage -->
<g id="edge21" class="edge">
<title>carvePath-&gt;isPassage</title>
<path fill="none" stroke="#000000" d="M370.8513,-139.0988C385.1876,-135.1231 400.2416,-128.861 411.7134,-119 439.4492,-95.1588 420.9438,-69.9212 447.7134,-45 453.1012,-39.9842 459.5385,-35.8514 466.2654,-32.4598"/>
<polygon fill="#000000" stroke="#000000" points="467.8651,-35.5781 475.5467,-28.2811 464.9913,-29.1952 467.8651,-35.5781"/>
</g>
<!-- replaceTile -->
<g id="node24" class="node">
<title>replaceTile</title>
<ellipse fill="none" stroke="#000000" cx="515.0595" cy="-126" rx="54.4276" ry="18"/>
<text text-anchor="middle" x="515.0595" y="-121.8" font-family="Times,serif" font-size="14.00" fill="#000000">replaceTile</text>
</g>
<!-- carvePath&#45;&gt;replaceTile -->
<g id="edge19" class="edge">
<title>carvePath-&gt;replaceTile</title>
<path fill="none" stroke="#000000" d="M372.5127,-141.0047C396.7716,-138.4512 426.6036,-135.311 452.6962,-132.5645"/>
<polygon fill="#000000" stroke="#000000" points="453.289,-136.0215 462.8676,-131.4938 452.5562,-129.06 453.289,-136.0215"/>
</g>
<!-- createNode -->
<g id="node5" class="node">
<title>createNode</title>
<ellipse fill="none" stroke="#000000" cx="673.4025" cy="-328" rx="54.9937" ry="18"/>
<text text-anchor="middle" x="673.4025" y="-323.8" font-family="Times,serif" font-size="14.00" fill="#000000">createNode</text>
</g>
<!-- getRequiredDirection -->
<g id="node10" class="node">
<title>getRequiredDirection</title>
<ellipse fill="none" stroke="#000000" cx="859.0998" cy="-328" rx="94.9013" ry="18"/>
<text text-anchor="middle" x="859.0998" y="-323.8" font-family="Times,serif" font-size="14.00" fill="#000000">getRequiredDirection</text>
</g>
<!-- createNode&#45;&gt;getRequiredDirection -->
<g id="edge29" class="edge">
<title>createNode-&gt;getRequiredDirection</title>
<path fill="none" stroke="#000000" d="M728.6151,-328C736.6835,-328 745.2084,-328 753.8798,-328"/>
<polygon fill="#000000" stroke="#000000" points="754.1082,-331.5001 764.1081,-328 754.1081,-324.5001 754.1082,-331.5001"/>
</g>
<!-- findTile -->
<g id="node6" class="node">
<title>findTile</title>
<ellipse fill="none" stroke="#000000" cx="515.0595" cy="-490" rx="42.2913" ry="18"/>
<text text-anchor="middle" x="515.0595" y="-485.8" font-family="Times,serif" font-size="14.00" fill="#000000">findTile</text>
</g>
<!-- getWidth -->
<g id="node12" class="node">
<title>getWidth</title>
<ellipse fill="none" stroke="#000000" cx="673.4025" cy="-490" rx="46.9497" ry="18"/>
<text text-anchor="middle" x="673.4025" y="-485.8" font-family="Times,serif" font-size="14.00" fill="#000000">getWidth</text>
</g>
<!-- findTile&#45;&gt;getWidth -->
<g id="edge30" class="edge">
<title>findTile-&gt;getWidth</title>
<path fill="none" stroke="#000000" d="M557.4925,-490C575.5078,-490 596.7839,-490 616.1582,-490"/>
<polygon fill="#000000" stroke="#000000" points="616.3901,-493.5001 626.39,-490 616.39,-486.5001 616.3901,-493.5001"/>
</g>
<!-- getHeight -->
<g id="node7" class="node">
<title>getHeight</title>
<ellipse fill="none" stroke="#000000" cx="673.4025" cy="-436" rx="49.2357" ry="18"/>
<text text-anchor="middle" x="673.4025" y="-431.8" font-family="Times,serif" font-size="14.00" fill="#000000">getHeight</text>
</g>
<!-- getNeighbors&#45;&gt;at -->
<g id="edge26" class="edge">
<title>getNeighbors-&gt;at</title>
<path fill="none" stroke="#000000" d="M536.2695,-364.7732C550.5056,-352.4811 569.0307,-334.999 582.4057,-317 603.272,-288.9198 593.4386,-271.506 618.4057,-247 624.504,-241.0143 632.1908,-236.1265 639.8687,-232.2369"/>
<polygon fill="#000000" stroke="#000000" points="641.4995,-235.3394 649.1221,-227.9809 638.5744,-228.9798 641.4995,-235.3394"/>
</g>
<!-- getNeighbors&#45;&gt;createNode -->
<g id="edge25" class="edge">
<title>getNeighbors-&gt;createNode</title>
<path fill="none" stroke="#000000" d="M555.8368,-368.0937C577.1489,-360.8256 603.3586,-351.8872 625.6185,-344.2959"/>
<polygon fill="#000000" stroke="#000000" points="626.8775,-347.5645 635.2125,-341.024 624.618,-340.9392 626.8775,-347.5645"/>
</g>
<!-- getNeighbors&#45;&gt;getHeight -->
<g id="edge23" class="edge">
<title>getNeighbors-&gt;getHeight</title>
<path fill="none" stroke="#000000" d="M555.8368,-395.9063C577.7875,-403.3922 604.9336,-412.6499 627.6085,-420.3828"/>
<polygon fill="#000000" stroke="#000000" points="626.7553,-423.7897 637.3498,-423.7049 629.0148,-417.1644 626.7553,-423.7897"/>
</g>
<!-- getNeighbors&#45;&gt;getWidth -->
<g id="edge22" class="edge">
<title>getNeighbors-&gt;getWidth</title>
<path fill="none" stroke="#000000" d="M558.8611,-395.0886C567.1909,-398.7746 575.4629,-403.3621 582.4057,-409 604.7972,-427.183 596.7123,-443.9895 618.4057,-463 622.3055,-466.4175 626.7144,-469.5126 631.2971,-472.284"/>
<polygon fill="#000000" stroke="#000000" points="629.7891,-475.4493 640.2359,-477.2145 633.17,-469.3199 629.7891,-475.4493"/>
</g>
<!-- isWall -->
<g id="node17" class="node">
<title>isWall</title>
<ellipse fill="none" stroke="#000000" cx="673.4025" cy="-382" rx="36.4917" ry="18"/>
<text text-anchor="middle" x="673.4025" y="-377.8" font-family="Times,serif" font-size="14.00" fill="#000000">isWall</text>
</g>
<!-- getNeighbors&#45;&gt;isWall -->
<g id="edge24" class="edge">
<title>getNeighbors-&gt;isWall</title>
<path fill="none" stroke="#000000" d="M578.5513,-382C594.63,-382 611.6074,-382 626.6855,-382"/>
<polygon fill="#000000" stroke="#000000" points="626.7865,-385.5001 636.7864,-382 626.7864,-378.5001 626.7865,-385.5001"/>
</g>
<!-- getStartAndGoal -->
<g id="node11" class="node">
<title>getStartAndGoal</title>
<ellipse fill="none" stroke="#000000" cx="325.0572" cy="-433" rx="76.442" ry="18"/>
<text text-anchor="middle" x="325.0572" y="-428.8" font-family="Times,serif" font-size="14.00" fill="#000000">getStartAndGoal</text>
</g>
<!-- getStartAndGoal&#45;&gt;findTile -->
<g id="edge31" class="edge">
<title>getStartAndGoal-&gt;findTile</title>
<path fill="none" stroke="#000000" d="M372.5127,-447.2365C402.6324,-456.2723 441.3432,-467.8854 470.8215,-476.7288"/>
<polygon fill="#000000" stroke="#000000" points="469.8549,-480.0928 480.4389,-479.6139 471.8663,-473.388 469.8549,-480.0928"/>
</g>
<!-- isGoal -->
<g id="node14" class="node">
<title>isGoal</title>
<ellipse fill="none" stroke="#000000" cx="515.0595" cy="-436" rx="36.4936" ry="18"/>
<text text-anchor="middle" x="515.0595" y="-431.8" font-family="Times,serif" font-size="14.00" fill="#000000">isGoal</text>
</g>
<!-- getStartAndGoal&#45;&gt;isGoal -->
<g id="edge32" class="edge">
<title>getStartAndGoal-&gt;isGoal</title>
<path fill="none" stroke="#000000" d="M401.5171,-434.2072C424.1726,-434.565 448.2917,-434.9458 468.4467,-435.264"/>
<polygon fill="#000000" stroke="#000000" points="468.5424,-438.7659 478.5965,-435.4243 468.653,-431.7667 468.5424,-438.7659"/>
</g>
<!-- getStartAndGoal&#45;&gt;isStart -->
<g id="edge33" class="edge">
<title>getStartAndGoal-&gt;isStart</title>
<path fill="none" stroke="#000000" d="M379.7941,-420.3567C390.9851,-416.2582 402.2277,-410.9169 411.7134,-404 433.5483,-388.0781 425.5029,-370.3937 447.7134,-355 498.8351,-319.5682 524.1537,-338.8072 582.4057,-317 593.3325,-312.9094 617.6226,-301.3848 638.36,-291.2955"/>
<polygon fill="#000000" stroke="#000000" points="640.1283,-294.327 647.5772,-286.7928 637.0557,-288.0374 640.1283,-294.327"/>
</g>
<!-- main -->
<g id="node18" class="node">
<title>main</title>
<ellipse fill="none" stroke="#000000" cx="30.3475" cy="-346" rx="30.1958" ry="18"/>
<text text-anchor="middle" x="30.3475" y="-341.8" font-family="Times,serif" font-size="14.00" fill="#000000">main</text>
</g>
<!-- main&#45;&gt;getStartAndGoal -->
<g id="edge1" class="edge">
<title>main-&gt;getStartAndGoal</title>
<path fill="none" stroke="#000000" d="M45.0617,-362.0094C57.5357,-374.5024 76.5657,-391.1712 96.695,-400 141.0237,-419.4427 194.3842,-427.8832 238.3736,-431.3761"/>
<polygon fill="#000000" stroke="#000000" points="238.2478,-434.8761 248.4739,-432.1052 238.7518,-427.8942 238.2478,-434.8761"/>
</g>
<!-- parseArgs -->
<g id="node20" class="node">
<title>parseArgs</title>
<ellipse fill="none" stroke="#000000" cx="149.548" cy="-373" rx="50.3586" ry="18"/>
<text text-anchor="middle" x="149.548" y="-368.8" font-family="Times,serif" font-size="14.00" fill="#000000">parseArgs</text>
</g>
<!-- main&#45;&gt;parseArgs -->
<g id="edge2" class="edge">
<title>main-&gt;parseArgs</title>
<path fill="none" stroke="#000000" d="M58.899,-352.4672C70.3152,-355.053 83.8399,-358.1165 96.9117,-361.0774"/>
<polygon fill="#000000" stroke="#000000" points="96.2508,-364.5163 106.777,-363.312 97.7973,-357.6892 96.2508,-364.5163"/>
</g>
<!-- parseMaze -->
<g id="node21" class="node">
<title>parseMaze</title>
<ellipse fill="none" stroke="#000000" cx="149.548" cy="-319" rx="52.7064" ry="18"/>
<text text-anchor="middle" x="149.548" y="-314.8" font-family="Times,serif" font-size="14.00" fill="#000000">parseMaze</text>
</g>
<!-- main&#45;&gt;parseMaze -->
<g id="edge3" class="edge">
<title>main-&gt;parseMaze</title>
<path fill="none" stroke="#000000" d="M58.899,-339.5328C69.8772,-337.0462 82.8052,-334.1178 95.4052,-331.2638"/>
<polygon fill="#000000" stroke="#000000" points="96.4166,-334.6235 105.3963,-329.0008 94.8702,-327.7964 96.4166,-334.6235"/>
</g>
<!-- solve -->
<g id="node26" class="node">
<title>solve</title>
<ellipse fill="none" stroke="#000000" cx="149.548" cy="-192" rx="31.339" ry="18"/>
<text text-anchor="middle" x="149.548" y="-187.8" font-family="Times,serif" font-size="14.00" fill="#000000">solve</text>
</g>
<!-- main&#45;&gt;solve -->
<g id="edge4" class="edge">
<title>main-&gt;solve</title>
<path fill="none" stroke="#000000" d="M43.104,-329.5193C64.0545,-302.4526 105.8664,-248.434 130.3891,-216.7522"/>
<polygon fill="#000000" stroke="#000000" points="133.1686,-218.8793 136.5218,-208.8291 127.6331,-214.5946 133.1686,-218.8793"/>
</g>
<!-- manhattanHeuristic -->
<g id="node19" class="node">
<title>manhattanHeuristic</title>
<ellipse fill="none" stroke="#000000" cx="325.0572" cy="-92" rx="86.8126" ry="18"/>
<text text-anchor="middle" x="325.0572" y="-87.8" font-family="Times,serif" font-size="14.00" fill="#000000">manhattanHeuristic</text>
</g>
<!-- parseTile -->
<g id="node22" class="node">
<title>parseTile</title>
<ellipse fill="none" stroke="#000000" cx="325.0572" cy="-305" rx="46.9246" ry="18"/>
<text text-anchor="middle" x="325.0572" y="-300.8" font-family="Times,serif" font-size="14.00" fill="#000000">parseTile</text>
</g>
<!-- parseMaze&#45;&gt;parseTile -->
<g id="edge6" class="edge">
<title>parseMaze-&gt;parseTile</title>
<path fill="none" stroke="#000000" d="M201.2573,-314.8753C222.4689,-313.1833 247.0813,-311.22 268.7469,-309.4918"/>
<polygon fill="#000000" stroke="#000000" points="269.1036,-312.9745 278.7936,-308.6904 268.5469,-305.9967 269.1036,-312.9745"/>
</g>
<!-- segment -->
<g id="node25" class="node">
<title>segment</title>
<ellipse fill="none" stroke="#000000" cx="325.0572" cy="-359" rx="43.4377" ry="18"/>
<text text-anchor="middle" x="325.0572" y="-354.8" font-family="Times,serif" font-size="14.00" fill="#000000">segment</text>
</g>
<!-- parseMaze&#45;&gt;segment -->
<g id="edge5" class="edge">
<title>parseMaze-&gt;segment</title>
<path fill="none" stroke="#000000" d="M193.8364,-329.0937C219.207,-334.8759 251.0623,-342.136 277.0329,-348.0549"/>
<polygon fill="#000000" stroke="#000000" points="276.5074,-351.5248 287.0351,-350.3345 278.0629,-344.6998 276.5074,-351.5248"/>
</g>
<!-- replace -->
<g id="node23" class="node">
<title>replace</title>
<ellipse fill="none" stroke="#000000" cx="673.4025" cy="-126" rx="38.8208" ry="18"/>
<text text-anchor="middle" x="673.4025" y="-121.8" font-family="Times,serif" font-size="14.00" fill="#000000">replace</text>
</g>
<!-- replaceTile&#45;&gt;replace -->
<g id="edge27" class="edge">
<title>replaceTile-&gt;replace</title>
<path fill="none" stroke="#000000" d="M569.5522,-126C587.184,-126 606.6302,-126 623.8812,-126"/>
<polygon fill="#000000" stroke="#000000" points="624.3029,-129.5001 634.3028,-126 624.3028,-122.5001 624.3029,-129.5001"/>
</g>
<!-- segment&#45;&gt;segment -->
<g id="edge28" class="edge">
<title>segment-&gt;segment</title>
<path fill="none" stroke="#000000" d="M296.6457,-373.0417C286.0203,-383.9126 295.4908,-395 325.0572,-395 345.8461,-395 356.6998,-389.5186 357.6185,-382.4851"/>
<polygon fill="#000000" stroke="#000000" points="360.6961,-380.7887 353.4687,-373.0417 354.2876,-383.6049 360.6961,-380.7887"/>
</g>
<!-- solve&#45;&gt;aStar -->
<g id="edge7" class="edge">
<title>solve-&gt;aStar</title>
<path fill="none" stroke="#000000" d="M179.3208,-198.1069C208.6195,-204.1166 253.526,-213.3277 285.7451,-219.9364"/>
<polygon fill="#000000" stroke="#000000" points="285.2248,-223.4025 295.7242,-221.9833 286.6314,-216.5452 285.2248,-223.4025"/>
</g>
<!-- solve&#45;&gt;carvePath -->
<g id="edge8" class="edge">
<title>solve-&gt;carvePath</title>
<path fill="none" stroke="#000000" d="M178.1372,-184.5069C204.344,-177.6383 243.7282,-167.3159 275.1248,-159.087"/>
<polygon fill="#000000" stroke="#000000" points="276.2251,-162.4169 285.011,-156.4959 274.4503,-155.6456 276.2251,-162.4169"/>
</g>
<!-- solve&#45;&gt;manhattanHeuristic -->
<g id="edge9" class="edge">
<title>solve-&gt;manhattanHeuristic</title>
<path fill="none" stroke="#000000" d="M164.8687,-176.2168C181.5722,-159.8245 209.7636,-134.4557 238.401,-119 244.9792,-115.4497 252.095,-112.2881 259.3233,-109.493"/>
<polygon fill="#000000" stroke="#000000" points="261.0029,-112.607 269.2099,-105.9066 258.6158,-106.0266 261.0029,-112.607"/>
</g>
</g>
</svg>